<svg version="1.0" xmlns="http://www.w3.org/2000/svg"
 width="1000.000000pt" height="419.000000pt" viewBox="0 0 1000.000000 419.000000"
 preserveAspectRatio="xMidYMid meet">
<metadata>
Created by potrace 1.16, written by Peter Selinger 2001-2019
</metadata>
<g transform="translate(0.000000,419.000000) scale(0.100000,-0.100000)"
fill="#000000" stroke="none">
<path d="M6556 3907 c-15 -139 -37 -319 -47 -402 -10 -82 -19 -152 -19 -155 0
-3 -95 90 -210 205 l-211 210 50 -140 c27 -77 70 -197 95 -267 25 -71 40 -128
34 -128 -13 0 -670 171 -680 177 -5 2 -8 1 -8 -4 0 -4 26 -23 58 -42 31 -19
100 -62 152 -97 155 -101 364 -234 375 -238 22 -8 -8 -14 -200 -43 -110 -17
-193 -33 -185 -36 8 -3 195 -56 414 -118 l400 -113 250 27 c1036 109 1177 125
1183 131 7 7 -40 15 -277 45 -474 62 -710 95 -710 100 0 3 49 33 108 65 356
196 588 330 557 322 -38 -11 -746 -186 -750 -186 -5 0 19 68 114 329 39 107
70 196 68 198 -4 3 -133 -133 -272 -287 -33 -36 -71 -78 -86 -94 l-26 -28 -16
83 c-8 46 -39 228 -68 404 -29 176 -55 323 -58 327 -4 4 -19 -106 -35 -245z"/>
<path d="M3165 2999 c-131 -11 -280 -28 -330 -39 -22 -5 -65 -13 -95 -19 -141
-27 -260 -55 -310 -73 -173 -61 -238 -96 -308 -162 -45 -42 -78 -93 -68 -104
3 -3 45 7 93 21 47 15 89 25 92 21 3 -3 -7 -17 -22 -30 -26 -22 -26 -24 -8
-24 12 0 21 -7 21 -15 0 -14 4 -14 33 1 17 9 55 32 82 51 l50 35 -55 -52 c-42
-39 -51 -53 -40 -60 11 -7 9 -13 -11 -29 -24 -20 -24 -20 -2 -21 12 0 24 4 27
9 3 5 16 11 28 14 13 3 40 10 61 15 42 11 50 1 12 -16 -88 -40 86 -51 186 -12
47 19 66 21 149 16 73 -5 106 -3 145 10 35 11 86 15 172 15 103 -1 149 5 295
35 366 76 414 78 809 29 643 -80 689 -88 1060 -186 274 -72 428 -99 709 -124
30 -3 102 -10 160 -16 171 -18 495 -23 558 -9 29 6 52 14 49 16 -2 3 -65 6
-140 9 -128 4 -181 10 -317 37 -114 22 -111 27 10 20 69 -4 301 -7 515 -6 309
0 421 4 540 18 82 9 152 20 155 23 3 3 -22 3 -55 -1 -336 -35 -676 -30 -1015
15 -189 25 -507 88 -670 132 -30 9 -89 25 -130 36 -134 36 -518 167 -534 182
-14 13 -5 12 124 -16 63 -13 223 -46 355 -74 132 -27 272 -56 310 -64 72 -16
300 -54 485 -82 198 -30 335 -44 495 -51 88 -4 162 -10 165 -14 10 -16 526 25
640 51 106 23 249 60 307 78 67 21 237 100 231 106 -2 3 -62 -18 -132 -46 -70
-28 -143 -51 -161 -52 -18 -1 -31 -6 -28 -11 4 -5 -6 -7 -21 -4 -14 3 -26 1
-26 -4 0 -4 -11 -6 -25 -2 -14 3 -25 2 -25 -4 0 -5 -17 -12 -37 -16 -21 -3
-60 -11 -88 -16 -224 -46 -628 -50 -950 -10 -265 34 -627 94 -662 112 -11 6
-26 7 -32 3 -7 -4 -17 -3 -24 2 -7 6 -37 15 -67 21 -106 21 -347 74 -560 124
-118 27 -237 53 -265 58 -27 4 -57 11 -65 14 -23 9 -408 76 -470 82 -30 3 -75
9 -100 14 -186 38 -990 62 -1275 39z"/>
<path d="M1083 2415 c-201 -55 -325 -234 -293 -427 11 -70 30 -107 83 -165 72
-78 151 -124 400 -232 297 -129 390 -221 389 -381 -1 -162 -104 -255 -298
-267 -140 -9 -245 34 -376 156 -62 57 -150 173 -207 274 -25 44 -36 55 -46 47
-10 -8 -6 -39 20 -153 18 -78 41 -185 50 -237 23 -129 20 -121 50 -110 42 16
108 12 233 -16 230 -50 393 -42 534 28 170 85 253 275 204 468 -41 161 -156
260 -437 380 -338 143 -429 220 -429 358 0 99 47 169 134 199 77 27 233 24
308 -5 114 -46 240 -170 303 -299 19 -40 36 -62 47 -62 14 -1 16 5 12 27 -3
15 -8 101 -12 192 l-7 165 -76 7 c-42 4 -117 16 -165 27 -190 44 -324 52 -421
26z"/>
<path d="M7332 2139 c-169 -33 -279 -164 -270 -319 5 -80 27 -128 87 -187 45
-44 75 -60 371 -201 191 -91 251 -157 251 -277 0 -139 -92 -216 -261 -217
-100 -1 -168 26 -255 100 -62 52 -162 178 -208 262 -12 22 -21 30 -28 23 -6
-6 1 -55 20 -139 16 -71 34 -161 41 -200 l11 -71 39 10 c31 9 65 5 181 -17
248 -49 399 -25 508 83 69 67 94 129 93 232 -1 187 -96 285 -402 414 -214 91
-293 153 -306 241 -13 89 14 147 89 187 34 18 58 22 132 22 77 0 98 -4 148
-27 32 -15 76 -42 98 -59 42 -33 116 -131 145 -191 16 -35 53 -56 41 -24 -3 8
-9 80 -13 160 l-7 146 -44 0 c-24 0 -85 9 -136 20 -96 20 -236 41 -265 39 -9
-1 -36 -5 -60 -10z"/>
<path d="M5355 2120 c-49 -5 -160 -9 -245 -8 -87 0 -154 -3 -153 -8 1 -5 22
-11 46 -14 51 -6 89 -29 114 -67 17 -25 18 -65 18 -508 0 -440 -1 -483 -18
-512 -20 -38 -57 -60 -116 -69 -103 -16 -32 -24 223 -24 258 0 341 9 227 24
-62 8 -113 42 -128 86 -8 23 -12 112 -12 254 -1 196 1 218 15 212 9 -3 56 -12
105 -18 l89 -12 45 -81 c58 -103 152 -233 261 -363 l86 -103 161 3 c117 2 161
6 165 16 2 7 -6 12 -21 12 -46 0 -164 69 -240 140 -76 71 -182 204 -255 321
-23 36 -42 69 -42 71 0 3 17 9 37 13 90 17 184 91 222 175 32 70 29 169 -8
245 -81 168 -282 243 -576 215z m278 -80 c93 -47 146 -134 147 -236 0 -125
-43 -205 -137 -251 -52 -25 -69 -28 -158 -28 -57 0 -116 6 -138 13 l-37 14 2
251 3 251 25 7 c14 5 75 7 135 6 95 -2 117 -5 158 -27z"/>
<path d="M1967 2114 c-13 -14 -7 -24 16 -24 41 -1 103 -36 115 -66 8 -20 12
-161 15 -429 3 -396 3 -401 27 -459 47 -116 166 -206 317 -242 94 -22 264 -15
352 15 159 55 258 170 281 328 5 37 10 217 10 398 0 302 2 334 19 372 22 47
57 74 107 82 82 14 20 22 -166 22 -110 0 -199 -4 -198 -8 1 -4 22 -13 47 -20
53 -13 95 -55 110 -110 7 -23 11 -172 11 -385 0 -393 -3 -413 -79 -500 -77
-87 -185 -124 -340 -115 -127 7 -183 28 -246 91 -84 84 -85 94 -84 530 0 271
4 380 13 406 15 41 63 77 115 85 103 17 59 24 -166 24 -133 1 -248 3 -255 6
-8 3 -17 2 -21 -1z"/>
<path d="M3413 2107 c-2 -4 2 -9 9 -11 74 -22 175 -63 213 -87 l48 -30 -8
-332 c-8 -410 -19 -594 -35 -628 -17 -37 -75 -66 -158 -81 -40 -7 -72 -15 -72
-19 0 -4 128 -7 285 -8 157 0 285 3 285 7 0 4 -30 13 -66 20 -108 21 -145 59
-163 172 -13 81 -15 820 -2 820 5 0 11 -4 13 -9 2 -5 44 -53 94 -108 254 -276
504 -586 675 -838 47 -69 59 -80 86 -83 l32 -3 3 538 c3 517 4 539 23 572 27
46 60 69 123 83 104 25 58 33 -193 33 -189 0 -245 -3 -245 -12 0 -7 11 -13 25
-13 36 0 98 -34 128 -70 36 -42 55 -114 68 -250 11 -118 9 -582 -2 -577 -4 1
-64 74 -135 162 -70 88 -171 212 -223 276 -53 64 -152 185 -221 269 -69 84
-136 166 -150 182 l-25 29 -203 2 c-112 1 -206 -1 -209 -6z"/>
<path d="M6303 2105 c2 -5 22 -13 45 -17 61 -10 97 -33 118 -75 18 -36 19 -67
19 -493 0 -351 -3 -464 -13 -492 -19 -52 -63 -86 -122 -94 -115 -15 -33 -24
220 -24 149 0 270 4 270 9 0 4 -17 11 -39 14 -62 8 -108 35 -128 75 -17 34
-18 72 -18 507 0 511 -1 506 56 548 15 10 47 22 73 24 25 3 46 11 46 17 0 8
-76 11 -265 11 -170 0 -264 -4 -262 -10z"/>
<path d="M8093 2107 c-5 -9 9 -13 62 -21 22 -3 51 -14 65 -24 55 -41 55 -37
55 -552 0 -440 -1 -477 -18 -508 -21 -38 -84 -71 -134 -72 -18 0 -33 -4 -33
-10 0 -6 189 -10 519 -10 l518 0 83 181 c52 114 78 185 72 191 -6 6 -16 -1
-27 -19 -42 -64 -181 -189 -250 -225 -114 -59 -178 -72 -350 -72 -82 1 -163 6
-180 11 l-30 9 -3 282 -2 282 25 6 c42 10 249 -12 290 -32 45 -21 89 -86 111
-161 9 -29 20 -53 25 -53 11 0 12 517 1 524 -5 3 -16 -21 -25 -54 -20 -71 -65
-126 -127 -154 -35 -15 -73 -21 -172 -24 l-128 -4 0 230 0 230 86 7 c47 4 136
5 197 3 140 -6 213 -30 275 -90 40 -41 102 -145 102 -175 0 -7 7 -13 16 -13
13 0 15 7 10 31 -3 17 -6 91 -6 163 l0 131 -511 0 c-281 0 -513 -3 -516 -8z"/>
<path d="M530 373 c-22 -12 -43 -34 -58 -63 -20 -39 -23 -56 -19 -125 6 -122
46 -180 128 -180 87 0 129 62 129 191 0 86 -23 154 -57 172 -39 21 -87 23
-123 5z m80 -43 c26 -14 40 -63 40 -137 0 -102 -34 -156 -88 -139 -26 9 -41
39 -48 100 -16 132 28 212 96 176z"/>
<path d="M990 377 c-48 -16 -77 -73 -61 -119 16 -46 37 -65 91 -83 60 -20 85
-45 76 -80 -14 -55 -98 -56 -124 -1 -11 21 -18 25 -35 20 -32 -10 -33 -12 -13
-49 47 -86 193 -78 227 12 24 64 -14 123 -97 152 -70 24 -93 61 -58 95 24 25
60 19 86 -13 19 -24 27 -27 46 -20 22 8 22 10 7 40 -9 17 -31 37 -50 45 -40
17 -49 17 -95 1z"/>
<path d="M3654 380 c-27 -11 -54 -48 -54 -75 0 -11 7 -33 16 -50 15 -28 14
-30 -11 -48 -28 -21 -55 -66 -55 -92 0 -35 32 -84 66 -100 37 -18 82 -13 120
11 17 12 23 12 40 -1 10 -8 31 -15 47 -15 22 0 27 4 27 26 0 14 -4 23 -9 20
-4 -3 -16 1 -26 8 -18 13 -18 15 -2 49 10 19 20 49 23 66 6 27 4 31 -14 31
-15 0 -24 -10 -33 -37 -18 -57 -19 -57 -50 -16 -35 47 -35 50 -4 79 47 44 45
113 -5 139 -32 17 -45 18 -76 5z"/>
<path d="M6163 379 c-17 -5 -41 -22 -52 -38 -44 -61 -51 -192 -14 -269 29 -61
122 -88 173 -49 26 20 50 60 50 84 0 34 -46 32 -54 -2 -8 -32 -49 -59 -76 -50
-33 10 -50 57 -50 137 0 90 22 141 61 146 19 2 33 -4 48 -24 11 -15 21 -33 21
-40 0 -8 11 -14 25 -14 19 0 25 5 25 20 0 37 -30 81 -65 96 -39 16 -47 16 -92
3z"/>
<path d="M7735 383 c-64 -17 -97 -80 -98 -189 0 -81 27 -153 66 -172 73 -35
137 -16 167 50 21 47 19 58 -14 58 -16 0 -25 -9 -34 -34 -14 -37 -39 -51 -72
-41 -33 11 -50 57 -50 140 0 83 17 129 50 140 33 10 58 -4 72 -41 10 -28 17
-34 40 -34 26 0 28 2 22 28 -11 43 -35 74 -71 88 -33 14 -44 15 -78 7z"/>
<path d="M0 195 l0 -185 30 0 30 0 0 85 0 85 55 0 55 0 0 -85 0 -85 30 0 30 0
0 185 0 185 -30 0 -30 0 0 -77 0 -78 -55 3 -55 4 0 74 0 74 -30 0 -30 0 0
-185z"/>
<path d="M1370 196 l0 -186 30 0 29 0 3 73 3 72 56 5 c65 6 84 18 99 66 16 47
5 95 -26 125 -22 21 -37 24 -110 28 l-84 3 0 -186z"/>
<path d="M1800 195 l0 -185 30 0 30 0 0 185 0 185 -30 0 -30 0 0 -185z"/>
<path d="M2050 355 c0 -22 4 -25 40 -25 l40 0 0 -160 0 -160 30 0 30 0 0 160
0 160 40 0 c36 0 40 3 40 25 l0 25 -110 0 -110 0 0 -25z"/>
<path d="M2465 213 c-26 -92 -50 -176 -53 -186 -3 -13 2 -17 26 -17 28 0 30 3
36 45 l7 45 58 0 59 0 11 -45 c10 -41 14 -45 42 -45 21 0 30 4 26 12 -2 7 -16
58 -31 113 -69 265 -59 240 -98 243 l-35 3 -48 -168z"/>
<path d="M2880 195 l0 -185 95 0 c94 0 95 0 95 25 0 23 -3 24 -67 27 l-68 3
-3 158 -3 157 -24 0 -25 0 0 -185z"/>
<path d="M4360 194 l0 -185 23 3 c21 3 22 7 27 150 l5 148 39 -150 c37 -138
42 -150 63 -150 18 0 24 8 33 43 29 113 64 234 71 247 5 8 9 -51 9 -137 l0
-153 25 0 25 0 0 186 0 185 -42 -3 -42 -3 -34 -122 c-19 -68 -38 -123 -41
-123 -4 0 -22 56 -41 125 l-33 125 -44 0 -43 0 0 -186z"/>
<path d="M4910 195 l0 -185 111 0 c109 0 110 0 107 23 -3 20 -9 22 -80 25
l-78 3 0 59 0 60 60 0 c53 0 60 2 60 20 0 16 -8 19 -57 22 l-58 3 -3 53 -3 52
75 0 c74 0 76 1 76 25 l0 25 -105 0 -105 0 0 -185z"/>
<path d="M5330 194 l0 -186 74 4 c121 6 170 58 171 183 0 129 -56 185 -185
185 l-60 0 0 -186z m155 104 c25 -30 27 -37 23 -109 -4 -96 -27 -129 -90 -129
l-39 0 2 135 1 135 38 0 c31 0 44 -6 65 -32z"/>
<path d="M5792 198 l3 -183 32 -3 31 -3 1 160 c2 195 -1 211 -40 211 l-29 0 2
-182z"/>
<path d="M6556 213 c-26 -92 -50 -176 -52 -185 -4 -14 1 -18 25 -18 28 0 30 3
37 45 l6 45 58 0 58 0 11 -45 c10 -41 14 -45 41 -45 27 0 30 3 25 22 -3 13
-25 95 -49 183 l-43 160 -34 3 -35 3 -48 -168z"/>
<path d="M6970 195 l0 -185 95 0 c94 0 95 0 95 25 0 23 -3 24 -67 27 l-68 3 0
158 0 157 -27 0 -28 0 0 -185z"/>
<path d="M8100 195 l0 -185 105 0 105 0 0 25 c0 24 -2 25 -75 25 l-75 0 0 60
0 60 55 0 c48 0 55 2 55 20 0 18 -7 20 -55 20 l-55 0 0 55 0 54 73 3 c66 3 72
5 75 26 3 22 2 22 -102 22 l-106 0 0 -185z"/>
<path d="M8510 195 l0 -185 25 0 24 0 3 143 3 142 65 -142 c61 -133 67 -143
93 -143 l27 0 0 185 0 185 -25 0 -25 0 -1 -127 -1 -128 -61 128 c-60 125 -61
127 -94 127 l-33 0 0 -185z"/>
<path d="M8934 365 c-10 -24 5 -35 47 -35 l39 0 0 -160 0 -160 25 0 25 0 0
160 0 160 45 0 c41 0 45 2 45 25 l0 25 -110 0 c-88 0 -112 -3 -116 -15z"/>
<path d="M9340 195 l0 -185 111 0 c109 0 110 0 107 23 -3 20 -9 22 -80 25
l-78 3 0 59 0 60 60 0 c53 0 60 2 60 20 0 16 -8 19 -57 22 l-58 3 -3 53 -3 52
75 0 c74 0 76 1 76 25 l0 25 -105 0 -105 0 0 -185z"/>
<path d="M9760 195 l0 -185 24 0 c31 0 38 21 34 97 l-3 58 30 0 c28 0 32 -5
59 -78 28 -74 30 -77 62 -77 l32 0 -34 81 -34 81 25 30 c23 27 30 50 26 88 -7
71 -38 90 -146 90 l-75 0 0 -185z"/>
</g>
</svg>
